<?xml version="1.0" encoding="UTF-8" standalone="no"?>
<svg
   width="209.838mm"
   height="126.504mm"
   viewBox="0 0 209.838 126.504"
   version="1.1"
   id="svg8"
   inkscape:version="1.2.2 (b0a8486541, 2022-12-01)"
   sodipodi:docname="logo.svg"
   xmlns:inkscape="http://www.inkscape.org/namespaces/inkscape"
   xmlns:sodipodi="http://sodipodi.sourceforge.net/DTD/sodipodi-0.dtd"
   xmlns="http://www.w3.org/2000/svg"
   xmlns:svg="http://www.w3.org/2000/svg"
   xmlns:rdf="http://www.w3.org/1999/02/22-rdf-syntax-ns#"
   xmlns:cc="http://creativecommons.org/ns#"
   xmlns:dc="http://purl.org/dc/elements/1.1/">
  <defs
     id="defs2" />
  <sodipodi:namedview
     id="base"
     pagecolor="#ffffff"
     bordercolor="#666666"
     borderopacity="1.0"
     inkscape:pageopacity="0.0"
     inkscape:pageshadow="2"
     inkscape:zoom="0.98994949"
     inkscape:cx="590.43416"
     inkscape:cy="369.71583"
     inkscape:document-units="mm"
     inkscape:current-layer="layer1"
     inkscape:document-rotation="0"
     showgrid="false"
     inkscape:snap-object-midpoints="true"
     inkscape:snap-midpoints="false"
     inkscape:object-nodes="false"
     inkscape:object-paths="true"
     inkscape:snap-intersection-paths="false"
     inkscape:snap-smooth-nodes="true"
     inkscape:snap-bbox="false"
     inkscape:bbox-paths="true"
     inkscape:snap-global="true"
     inkscape:snap-page="true"
     inkscape:window-width="1896"
     inkscape:window-height="1152"
     inkscape:window-x="8"
     inkscape:window-y="8"
     inkscape:window-maximized="1"
     inkscape:snap-center="true"
     inkscape:showpageshadow="2"
     inkscape:pagecheckerboard="0"
     inkscape:deskcolor="#d1d1d1" />
  <metadata
     id="metadata5">
    <rdf:RDF>
      <cc:Work
         rdf:about="">
        <dc:format>image/svg+xml</dc:format>
        <dc:type
           rdf:resource="http://purl.org/dc/dcmitype/StillImage" />
        <dc:title />
      </cc:Work>
    </rdf:RDF>
  </metadata>
  <g
     inkscape:label="Шар 1"
     inkscape:groupmode="layer"
     id="layer1">
    <g
       id="g11"
       transform="translate(-0.01670026,-83.553542)"
       style="fill:#bde9ff;stroke:#bde9ff;fill-opacity:1;stroke-opacity:1">
      <path
         id="rect10"
         style="fill:#bde9ff;fill-rule:evenodd;stroke:#bde9ff;stroke-width:2.91007;stroke-opacity:1;paint-order:markers fill stroke;stop-color:#000000;fill-opacity:1"
         d="m 43.368827,88.397948 c -4.341807,0 -7.924338,2.048786 -8.630874,4.756782 H 21.672455 c -6.423777,0 -11.594858,5.21133 -11.594858,11.6851 v 78.21647 c 0,6.47376 5.171081,11.68511 11.594858,11.68511 h 6.820255 a 18.626607,18.771588 0 0 0 17.977768,13.86089 18.626607,18.771588 0 0 0 17.976923,-13.86089 h 6.172228 a 18.626607,18.771588 0 0 0 17.976941,13.86089 18.626607,18.771588 0 0 0 17.97689,-13.86089 h 46.47426 a 18.626607,18.771588 0 0 0 17.97778,13.86089 18.626607,18.771588 0 0 0 17.97692,-13.86089 h 12.84475 c 3.63031,2e-5 6.55249,-5.21132 6.55249,-11.68511 v -41.77722 c 0,-6.47375 -2.92218,-11.68592 -6.55249,-11.68592 h -15.14475 v -6.6881 c 0,-0.0306 -9.4e-4,-0.0607 -9.4e-4,-0.0913 h 0.2325 c 2.47897,0 4.47493,-2.60521 4.47493,-5.84211 v -11.50321 c 0,-3.23689 -1.99596,-5.842979 -4.47493,-5.842979 h -31.81674 c -2.47897,0 -4.47492,2.606089 -4.47492,5.842979 v 11.5032 c 0,3.2369 1.99595,5.84212 4.47492,5.84212 h 0.23252 c -1.9e-4,0.0306 -9.4e-4,0.0607 -9.4e-4,0.0913 v 6.6881 h -44.4677 v -24.75334 c 0,-6.473776 -5.17191,-11.68509 -11.595652,-11.68509 H 87.452444 c -0.706536,-2.707996 -4.288237,-4.756782 -8.630045,-4.756782 z m 17.109817,19.285102 a 17.426512,17.562153 0 0 1 17.427124,17.56194 17.426512,17.562153 0 0 1 -8.659429,15.17801 l 5.041537,17.36989 4.08376,14.07239 H 42.586498 l 4.083762,-14.07239 5.041519,-17.37073 a 17.426512,17.562153 0 0 1 -8.659413,-15.17717 17.426512,17.562153 0 0 1 17.426278,-17.56194 z" />
      <path
         style="font-variation-settings:normal;opacity:1;vector-effect:none;fill:#bde9ff;fill-opacity:1;fill-rule:evenodd;stroke:#bde9ff;stroke-width:5.20606;stroke-linecap:round;stroke-linejoin:round;stroke-miterlimit:4;stroke-dasharray:none;stroke-dashoffset:0;stroke-opacity:1;stop-color:#000000;stop-opacity:1"
         id="path14"
         sodipodi:type="arc"
         sodipodi:cx="-60.251369"
         sodipodi:cy="-202.31461"
         sodipodi:rx="115.26328"
         sodipodi:ry="116.16043"
         sodipodi:start="1.0471976"
         sodipodi:end="2.0943951"
         sodipodi:arc-type="arc"
         d="m -2.619733,-101.71672 a 115.26328,116.16043 0 0 1 -115.263277,0"
         transform="scale(-1)"
         sodipodi:open="true" />
    </g>
  </g>
</svg>
